<svg xmlns="http://www.w3.org/2000/svg" viewBox="0 0 128 128" fill="none">
  <circle cx="64" cy="64" r="62" fill="white" stroke="rgba(255,255,255,0.35)" stroke-width="3"/>
  <circle cx="64" cy="64" r="56" fill="#032EA1"/>
  <path d="M64 28c-8 12-22 20-22 36 0 14 10 24 22 28 12-4 22-14 22-28 0-16-14-24-22-36z" fill="#10B981" opacity="0.95"/>
  <path d="M64 40c-5 8-12 14-12 24 0 9 5 16 12 19 7-3 12-10 12-19 0-10-7-16-12-24z" fill="#34D399"/>
  <path d="M48 88h32v12H48V88zm8-16l16-10 16 10v16H56V72z" fill="white" opacity="0.9"/>
  <rect x="60" y="96" width="8" height="4" rx="1" fill="#032EA1"/>
</svg>
